<svg viewBox="0 0 500 500" xmlns="http://www.w3.org/2000/svg"><g fill="#FFF"><path d="M354.16 0H145.82c-34.59 0-62.5 27.91-62.5 62.5v375c0 34.375 27.91 62.5 62.49 62.5h208.33c34.375 0 62.5-28.125 62.5-62.5v-375c0-34.59-28.125-62.5-62.5-62.5Zm20.83 395.83c0 5.625-4.8 10.41-10.42 10.41H135.4c-5.84 0-10.42-4.8-10.42-10.42V72.9c0-5.84 4.58-10.42 10.41-10.42h229.16c5.625 0 10.41 4.58 10.41 10.41V395.8Z"/><path d="M260.417 281.25h-83.34c-11.67 0-20.833 9.16-20.833 20.83 0 11.45 9.16 20.83 20.833 20.83h83.33c11.45 0 20.83-9.38 20.83-20.84 0-11.67-9.375-20.84-20.84-20.84Z"/><path d="M322.917 197.917H177.07c-11.67 0-20.833 9.16-20.833 20.833 0 11.45 9.16 20.833 20.833 20.833h145.83c11.45 0 20.83-9.375 20.83-20.833 0-11.67-9.375-20.833-20.84-20.833Z"/><path d="M322.917 114.58H177.07c-11.67 0-20.833 9.16-20.833 20.83 0 11.45 9.16 20.83 20.833 20.83h145.83c11.45 0 20.83-9.375 20.83-20.84 0-11.67-9.375-20.84-20.84-20.84Z"/></g></svg>