<svg viewBox="0 0 500 500" xmlns="http://www.w3.org/2000/svg"><defs><clipPath id="a"><path d="M0 0h500v500H0Z"/></clipPath></defs><g clip-path="url(#a)"><path fill="#FF3838" d="M121.99 0h255.97c67.37 0 121.99 54.61 121.99 121.99v255.97c0 67.37-54.62 121.99-121.99 121.99H121.98C54.6 499.95-.01 445.33-.01 377.96V121.98C-.01 54.6 54.6-.01 121.98-.01Z"/><g fill="#FFF"><path d="M318.75 85h-137.5C158.42 85 140 103.42 140 126.25v247.5c0 22.68 18.42 41.25 41.25 41.25h137.5c22.68 0 41.25-18.57 41.25-41.25v-247.5C360 103.42 341.43 85 318.75 85Zm13.75 261.25c0 3.71-3.17 6.875-6.875 6.875h-151.25c-3.85 0-6.875-3.17-6.875-6.875V133.125c0-3.85 3.02-6.875 6.875-6.875h151.25c3.71 0 6.875 3.02 6.875 6.875V346.25Z"/><path d="M256.875 270.625h-55c-7.7 0-13.75 6.05-13.75 13.75 0 7.56 6.05 13.75 13.75 13.75h55c7.56 0 13.75-6.19 13.75-13.75 0-7.7-6.19-13.75-13.75-13.75Z"/><path d="M298.125 215.625h-96.25c-7.7 0-13.75 6.05-13.75 13.75 0 7.56 6.05 13.75 13.75 13.75h96.25c7.56 0 13.75-6.19 13.75-13.75 0-7.7-6.19-13.75-13.75-13.75Z"/><path d="M298.125 160.625h-96.25c-7.7 0-13.75 6.05-13.75 13.75 0 7.56 6.05 13.75 13.75 13.75h96.25c7.56 0 13.75-6.19 13.75-13.75 0-7.7-6.19-13.75-13.75-13.75Z"/></g></g></svg>